G04 EAGLE Gerber RS-274X export*
G75*
%MOMM*%
%FSLAX34Y34*%
%LPD*%
%INSilkscreen Top*%
%IPPOS*%
%AMOC8*
5,1,8,0,0,1.08239X$1,22.5*%
G01*
%ADD10C,0.203200*%
%ADD11C,0.406400*%
%ADD12C,0.152400*%


D10*
X21330Y432690D02*
X14230Y432690D01*
X14230Y394690D02*
X21330Y394690D01*
D11*
X24130Y672190D02*
X34830Y679190D01*
X24130Y672190D02*
X34830Y665190D01*
X34830Y679190D01*
D10*
X13530Y706290D02*
X95530Y706290D01*
X13530Y706290D02*
X13530Y121090D01*
X95530Y121090D01*
X95530Y706290D01*
X87530Y698290D02*
X21530Y698290D01*
X87530Y698290D02*
X87530Y129090D01*
X21530Y129090D01*
X21530Y394690D01*
X21530Y432690D02*
X21530Y698290D01*
X87530Y698290D02*
X95530Y706290D01*
X21530Y698290D02*
X13530Y706290D01*
X87530Y129090D02*
X95530Y121090D01*
X21530Y129090D02*
X13530Y121090D01*
D12*
X-864Y637930D02*
X-13508Y637930D01*
X-864Y637929D02*
X-746Y637927D01*
X-628Y637921D01*
X-510Y637912D01*
X-393Y637898D01*
X-276Y637881D01*
X-159Y637860D01*
X-44Y637835D01*
X71Y637806D01*
X185Y637773D01*
X297Y637737D01*
X408Y637697D01*
X518Y637654D01*
X627Y637607D01*
X734Y637557D01*
X839Y637502D01*
X942Y637445D01*
X1043Y637384D01*
X1143Y637320D01*
X1240Y637253D01*
X1335Y637183D01*
X1427Y637109D01*
X1518Y637033D01*
X1605Y636953D01*
X1690Y636871D01*
X1772Y636786D01*
X1852Y636699D01*
X1928Y636608D01*
X2002Y636516D01*
X2072Y636421D01*
X2139Y636324D01*
X2203Y636224D01*
X2264Y636123D01*
X2321Y636020D01*
X2376Y635915D01*
X2426Y635808D01*
X2473Y635699D01*
X2516Y635589D01*
X2556Y635478D01*
X2592Y635366D01*
X2625Y635252D01*
X2654Y635137D01*
X2679Y635022D01*
X2700Y634905D01*
X2717Y634788D01*
X2731Y634671D01*
X2740Y634553D01*
X2746Y634435D01*
X2748Y634317D01*
X2748Y632511D01*
X-9896Y644997D02*
X-13508Y649512D01*
X2748Y649512D01*
X2748Y644997D02*
X2748Y654028D01*
D10*
X911000Y432690D02*
X918100Y432690D01*
X918100Y394690D02*
X911000Y394690D01*
D11*
X920900Y672190D02*
X931600Y679190D01*
X920900Y672190D02*
X931600Y665190D01*
X931600Y679190D01*
D10*
X910300Y706290D02*
X992300Y706290D01*
X910300Y706290D02*
X910300Y121090D01*
X992300Y121090D01*
X992300Y706290D01*
X984300Y698290D02*
X918300Y698290D01*
X984300Y698290D02*
X984300Y129090D01*
X918300Y129090D01*
X918300Y394690D01*
X918300Y432690D02*
X918300Y698290D01*
X984300Y698290D02*
X992300Y706290D01*
X918300Y698290D02*
X910300Y706290D01*
X984300Y129090D02*
X992300Y121090D01*
X918300Y129090D02*
X910300Y121090D01*
D12*
X895906Y637930D02*
X883262Y637930D01*
X895906Y637929D02*
X896024Y637927D01*
X896142Y637921D01*
X896260Y637912D01*
X896377Y637898D01*
X896494Y637881D01*
X896611Y637860D01*
X896726Y637835D01*
X896841Y637806D01*
X896955Y637773D01*
X897067Y637737D01*
X897178Y637697D01*
X897288Y637654D01*
X897397Y637607D01*
X897504Y637557D01*
X897609Y637502D01*
X897712Y637445D01*
X897813Y637384D01*
X897913Y637320D01*
X898010Y637253D01*
X898105Y637183D01*
X898197Y637109D01*
X898288Y637033D01*
X898375Y636953D01*
X898460Y636871D01*
X898542Y636786D01*
X898622Y636699D01*
X898698Y636608D01*
X898772Y636516D01*
X898842Y636421D01*
X898909Y636324D01*
X898973Y636224D01*
X899034Y636123D01*
X899091Y636020D01*
X899146Y635915D01*
X899196Y635808D01*
X899243Y635699D01*
X899286Y635589D01*
X899326Y635478D01*
X899362Y635366D01*
X899395Y635252D01*
X899424Y635137D01*
X899449Y635022D01*
X899470Y634905D01*
X899487Y634788D01*
X899501Y634671D01*
X899510Y634553D01*
X899516Y634435D01*
X899518Y634317D01*
X899518Y632511D01*
X883262Y649964D02*
X883264Y650089D01*
X883270Y650214D01*
X883279Y650339D01*
X883293Y650463D01*
X883310Y650587D01*
X883331Y650711D01*
X883356Y650833D01*
X883385Y650955D01*
X883417Y651076D01*
X883453Y651196D01*
X883493Y651315D01*
X883536Y651432D01*
X883583Y651548D01*
X883634Y651663D01*
X883688Y651775D01*
X883746Y651887D01*
X883806Y651996D01*
X883871Y652103D01*
X883938Y652209D01*
X884009Y652312D01*
X884083Y652413D01*
X884160Y652512D01*
X884240Y652608D01*
X884323Y652702D01*
X884408Y652793D01*
X884497Y652882D01*
X884588Y652967D01*
X884682Y653050D01*
X884778Y653130D01*
X884877Y653207D01*
X884978Y653281D01*
X885081Y653352D01*
X885187Y653419D01*
X885294Y653484D01*
X885403Y653544D01*
X885515Y653602D01*
X885627Y653656D01*
X885742Y653707D01*
X885858Y653754D01*
X885975Y653797D01*
X886094Y653837D01*
X886214Y653873D01*
X886335Y653905D01*
X886457Y653934D01*
X886579Y653959D01*
X886703Y653980D01*
X886827Y653997D01*
X886951Y654011D01*
X887076Y654020D01*
X887201Y654026D01*
X887326Y654028D01*
X883262Y649964D02*
X883264Y649821D01*
X883270Y649679D01*
X883280Y649536D01*
X883293Y649394D01*
X883311Y649253D01*
X883332Y649111D01*
X883357Y648971D01*
X883386Y648831D01*
X883419Y648692D01*
X883456Y648554D01*
X883496Y648417D01*
X883540Y648282D01*
X883588Y648147D01*
X883640Y648014D01*
X883695Y647882D01*
X883754Y647752D01*
X883816Y647624D01*
X883882Y647497D01*
X883951Y647372D01*
X884023Y647249D01*
X884099Y647128D01*
X884178Y647010D01*
X884261Y646893D01*
X884346Y646779D01*
X884435Y646667D01*
X884526Y646558D01*
X884621Y646451D01*
X884718Y646346D01*
X884819Y646245D01*
X884922Y646146D01*
X885027Y646050D01*
X885136Y645957D01*
X885247Y645867D01*
X885360Y645780D01*
X885475Y645696D01*
X885593Y645616D01*
X885713Y645538D01*
X885835Y645464D01*
X885959Y645394D01*
X886085Y645326D01*
X886213Y645263D01*
X886342Y645202D01*
X886473Y645145D01*
X886605Y645092D01*
X886739Y645043D01*
X886874Y644997D01*
X890487Y652673D02*
X890395Y652767D01*
X890301Y652857D01*
X890204Y652945D01*
X890104Y653030D01*
X890002Y653112D01*
X889897Y653190D01*
X889790Y653266D01*
X889681Y653338D01*
X889570Y653407D01*
X889456Y653473D01*
X889341Y653535D01*
X889224Y653594D01*
X889105Y653649D01*
X888985Y653700D01*
X888863Y653748D01*
X888740Y653793D01*
X888616Y653833D01*
X888490Y653870D01*
X888363Y653903D01*
X888236Y653932D01*
X888107Y653958D01*
X887978Y653979D01*
X887848Y653997D01*
X887718Y654010D01*
X887588Y654020D01*
X887457Y654026D01*
X887326Y654028D01*
X890487Y652673D02*
X899518Y644997D01*
X899518Y654028D01*
D10*
X264200Y432690D02*
X257100Y432690D01*
X257100Y394690D02*
X264200Y394690D01*
D11*
X267000Y672190D02*
X277700Y679190D01*
X267000Y672190D02*
X277700Y665190D01*
X277700Y679190D01*
D10*
X256400Y706290D02*
X338400Y706290D01*
X256400Y706290D02*
X256400Y121090D01*
X338400Y121090D01*
X338400Y706290D01*
X330400Y698290D02*
X264400Y698290D01*
X330400Y698290D02*
X330400Y129090D01*
X264400Y129090D01*
X264400Y394690D01*
X264400Y432690D02*
X264400Y698290D01*
X330400Y698290D02*
X338400Y706290D01*
X264400Y698290D02*
X256400Y706290D01*
X330400Y129090D02*
X338400Y121090D01*
X264400Y129090D02*
X256400Y121090D01*
D12*
X245618Y605949D02*
X229362Y605949D01*
X245618Y605949D02*
X245618Y613174D01*
X245618Y619496D02*
X245618Y626721D01*
X245618Y619496D02*
X229362Y619496D01*
X229362Y626721D01*
X236587Y624914D02*
X236587Y619496D01*
X229362Y633043D02*
X245618Y633043D01*
X229362Y633043D02*
X229362Y640268D01*
X236587Y640268D02*
X236587Y633043D01*
X229362Y649512D02*
X245618Y649512D01*
X229362Y644997D02*
X229362Y654028D01*
D10*
X670000Y430150D02*
X677100Y430150D01*
X677100Y392150D02*
X670000Y392150D01*
D11*
X679900Y669650D02*
X690600Y676650D01*
X679900Y669650D02*
X690600Y662650D01*
X690600Y676650D01*
D10*
X669300Y703750D02*
X751300Y703750D01*
X669300Y703750D02*
X669300Y118550D01*
X751300Y118550D01*
X751300Y703750D01*
X743300Y695750D02*
X677300Y695750D01*
X743300Y695750D02*
X743300Y126550D01*
X677300Y126550D01*
X677300Y392150D01*
X677300Y430150D02*
X677300Y695750D01*
X743300Y695750D02*
X751300Y703750D01*
X677300Y695750D02*
X669300Y703750D01*
X743300Y126550D02*
X751300Y118550D01*
X677300Y126550D02*
X669300Y118550D01*
D12*
X658518Y585234D02*
X642262Y585234D01*
X642262Y589749D01*
X642264Y589882D01*
X642270Y590014D01*
X642280Y590146D01*
X642293Y590278D01*
X642311Y590410D01*
X642332Y590540D01*
X642357Y590671D01*
X642386Y590800D01*
X642419Y590928D01*
X642455Y591056D01*
X642495Y591182D01*
X642539Y591307D01*
X642587Y591431D01*
X642638Y591553D01*
X642693Y591674D01*
X642751Y591793D01*
X642813Y591911D01*
X642878Y592026D01*
X642947Y592140D01*
X643018Y592251D01*
X643094Y592360D01*
X643172Y592467D01*
X643253Y592572D01*
X643338Y592674D01*
X643425Y592774D01*
X643515Y592871D01*
X643608Y592966D01*
X643704Y593057D01*
X643802Y593146D01*
X643903Y593232D01*
X644007Y593315D01*
X644113Y593395D01*
X644221Y593471D01*
X644331Y593545D01*
X644444Y593615D01*
X644558Y593682D01*
X644675Y593745D01*
X644793Y593805D01*
X644913Y593862D01*
X645035Y593915D01*
X645158Y593964D01*
X645282Y594010D01*
X645408Y594052D01*
X645535Y594090D01*
X645663Y594125D01*
X645792Y594156D01*
X645921Y594183D01*
X646052Y594206D01*
X646183Y594226D01*
X646315Y594241D01*
X646447Y594253D01*
X646579Y594261D01*
X646712Y594265D01*
X646844Y594265D01*
X646977Y594261D01*
X647109Y594253D01*
X647241Y594241D01*
X647373Y594226D01*
X647504Y594206D01*
X647635Y594183D01*
X647764Y594156D01*
X647893Y594125D01*
X648021Y594090D01*
X648148Y594052D01*
X648274Y594010D01*
X648398Y593964D01*
X648521Y593915D01*
X648643Y593862D01*
X648763Y593805D01*
X648881Y593745D01*
X648998Y593682D01*
X649112Y593615D01*
X649225Y593545D01*
X649335Y593471D01*
X649443Y593395D01*
X649549Y593315D01*
X649653Y593232D01*
X649754Y593146D01*
X649852Y593057D01*
X649948Y592966D01*
X650041Y592871D01*
X650131Y592774D01*
X650218Y592674D01*
X650303Y592572D01*
X650384Y592467D01*
X650462Y592360D01*
X650538Y592251D01*
X650609Y592140D01*
X650678Y592026D01*
X650743Y591911D01*
X650805Y591793D01*
X650863Y591674D01*
X650918Y591553D01*
X650969Y591431D01*
X651017Y591307D01*
X651061Y591182D01*
X651101Y591056D01*
X651137Y590928D01*
X651170Y590800D01*
X651199Y590671D01*
X651224Y590540D01*
X651245Y590410D01*
X651263Y590278D01*
X651276Y590146D01*
X651286Y590014D01*
X651292Y589882D01*
X651294Y589749D01*
X651293Y589749D02*
X651293Y585234D01*
X651293Y590653D02*
X658518Y594265D01*
X658518Y602163D02*
X642262Y602163D01*
X658518Y600357D02*
X658518Y603969D01*
X642262Y603969D02*
X642262Y600357D01*
X649487Y616995D02*
X649487Y619704D01*
X658518Y619704D01*
X658518Y614286D01*
X658516Y614168D01*
X658510Y614050D01*
X658501Y613932D01*
X658487Y613815D01*
X658470Y613698D01*
X658449Y613581D01*
X658424Y613466D01*
X658395Y613351D01*
X658362Y613237D01*
X658326Y613125D01*
X658286Y613014D01*
X658243Y612904D01*
X658196Y612795D01*
X658146Y612688D01*
X658091Y612583D01*
X658034Y612480D01*
X657973Y612379D01*
X657909Y612279D01*
X657842Y612182D01*
X657772Y612087D01*
X657698Y611995D01*
X657622Y611904D01*
X657542Y611817D01*
X657460Y611732D01*
X657375Y611650D01*
X657288Y611570D01*
X657197Y611494D01*
X657105Y611420D01*
X657010Y611350D01*
X656913Y611283D01*
X656813Y611219D01*
X656712Y611158D01*
X656609Y611101D01*
X656504Y611046D01*
X656397Y610996D01*
X656288Y610949D01*
X656178Y610906D01*
X656067Y610866D01*
X655955Y610830D01*
X655841Y610797D01*
X655726Y610768D01*
X655611Y610743D01*
X655494Y610722D01*
X655377Y610705D01*
X655260Y610691D01*
X655142Y610682D01*
X655024Y610676D01*
X654906Y610674D01*
X654906Y610673D02*
X645874Y610673D01*
X645756Y610675D01*
X645638Y610681D01*
X645520Y610690D01*
X645402Y610704D01*
X645285Y610721D01*
X645169Y610742D01*
X645054Y610767D01*
X644939Y610796D01*
X644825Y610829D01*
X644713Y610865D01*
X644601Y610905D01*
X644491Y610948D01*
X644383Y610995D01*
X644276Y611046D01*
X644171Y611100D01*
X644068Y611157D01*
X643966Y611218D01*
X643867Y611282D01*
X643770Y611349D01*
X643675Y611420D01*
X643582Y611493D01*
X643492Y611570D01*
X643404Y611649D01*
X643319Y611731D01*
X643237Y611816D01*
X643158Y611904D01*
X643081Y611994D01*
X643008Y612087D01*
X642937Y612181D01*
X642870Y612279D01*
X642806Y612378D01*
X642745Y612479D01*
X642688Y612583D01*
X642634Y612688D01*
X642583Y612795D01*
X642536Y612903D01*
X642493Y613013D01*
X642453Y613125D01*
X642417Y613237D01*
X642384Y613351D01*
X642355Y613466D01*
X642330Y613581D01*
X642309Y613697D01*
X642292Y613814D01*
X642278Y613932D01*
X642269Y614050D01*
X642263Y614168D01*
X642261Y614286D01*
X642262Y614286D02*
X642262Y619704D01*
X642262Y627347D02*
X658518Y627347D01*
X649487Y627347D02*
X649487Y636378D01*
X642262Y636378D02*
X658518Y636378D01*
X658518Y646972D02*
X642262Y646972D01*
X642262Y642457D02*
X642262Y651488D01*
M02*
