M48
;GenerationSoftware,Autodesk,EAGLE,9.6.2*%
;CreationDate,2024-04-13T17:28:08Z*%
FMAT,2
ICI,OFF
METRIC,TZ,000.000
T2C1.000
%
G90
M71
T2
X28470Y27399
X31010Y40099
X28470Y37559
X31010Y37559
X28470Y35019
X31010Y35019
X28470Y32479
X31010Y32479
X28470Y29939
X31010Y29939
X28470Y40099
X31010Y27399
X28470Y24859
X31010Y24859
X28470Y22319
X31010Y22319
X28470Y19779
X31010Y19779
X28470Y17239
X31010Y17239
X28470Y52799
X31010Y65499
X28470Y62959
X31010Y62959
X28470Y60419
X31010Y60419
X28470Y57879
X31010Y57879
X28470Y55339
X31010Y55339
X69760Y65245
X31010Y52799
X28470Y50259
X31010Y50259
X28470Y47719
X31010Y47719
X28470Y45179
X31010Y45179
X28470Y42639
X31010Y42639
X69760Y27145
X72300Y39845
X69760Y37305
X72300Y37305
X69760Y34765
X72300Y34765
X69760Y32225
X72300Y32225
X69760Y29685
X72300Y29685
X69760Y39845
X72300Y27145
X69760Y24605
X72300Y24605
X69760Y22065
X72300Y22065
X69760Y19525
X72300Y19525
X69760Y16985
X72300Y16985
X69760Y52545
X72300Y65245
X69760Y62705
X72300Y62705
X69760Y60165
X72300Y60165
X69760Y57625
X72300Y57625
X69760Y55085
X72300Y55085
X28470Y65499
X72300Y52545
X69760Y50005
X72300Y50005
X69760Y47465
X72300Y47465
X69760Y44925
X72300Y44925
X69760Y42385
X72300Y42385
X4183Y27399
X6723Y40099
X4183Y37559
X6723Y37559
X4183Y35019
X6723Y35019
X4183Y32479
X6723Y32479
X4183Y29939
X6723Y29939
X4183Y40099
X6723Y27399
X4183Y24859
X6723Y24859
X4183Y22319
X6723Y22319
X4183Y19779
X6723Y19779
X4183Y17239
X6723Y17239
X4183Y52799
X6723Y65499
X4183Y62959
X6723Y62959
X4183Y60419
X6723Y60419
X4183Y57879
X6723Y57879
X4183Y55339
X6723Y55339
X93860Y65499
X6723Y52799
X4183Y50259
X6723Y50259
X4183Y47719
X6723Y47719
X4183Y45179
X6723Y45179
X4183Y42639
X6723Y42639
X93860Y27399
X96400Y40099
X93860Y37559
X96400Y37559
X93860Y35019
X96400Y35019
X93860Y32479
X96400Y32479
X93860Y29939
X96400Y29939
X93860Y40099
X96400Y27399
X93860Y24859
X96400Y24859
X93860Y22319
X96400Y22319
X93860Y19779
X96400Y19779
X93860Y17239
X96400Y17239
X93860Y52799
X96400Y65499
X93860Y62959
X96400Y62959
X93860Y60419
X96400Y60419
X93860Y57879
X96400Y57879
X93860Y55339
X96400Y55339
X4183Y65499
X96400Y52799
X93860Y50259
X96400Y50259
X93860Y47719
X96400Y47719
X93860Y45179
X96400Y45179
X93860Y42639
X96400Y42639
M30